<?xml version="1.0" encoding="UTF-8" standalone="no"?>
<!-- Created with Inkscape (http://www.inkscape.org/) -->

<svg
   xmlns:dc="http://purl.org/dc/elements/1.1/"
   xmlns:cc="http://creativecommons.org/ns#"
   xmlns:rdf="http://www.w3.org/1999/02/22-rdf-syntax-ns#"
   xmlns:svg="http://www.w3.org/2000/svg"
   xmlns="http://www.w3.org/2000/svg"
   xmlns:sodipodi="http://sodipodi.sourceforge.net/DTD/sodipodi-0.dtd"
   xmlns:inkscape="http://www.inkscape.org/namespaces/inkscape"
   id="svg2"
   version="1.1"
   inkscape:version="0.91 r13725"
   width="464.98"
   height="262.443"
   xml:space="preserve"
   sodipodi:docname="MSD.svg"
   viewBox="0 0 460 260"><metadata
     id="metadata8"><rdf:RDF><cc:Work
         rdf:about=""><dc:format>image/svg+xml</dc:format><dc:type
           rdf:resource="http://purl.org/dc/dcmitype/StillImage" /><dc:title></dc:title></cc:Work></rdf:RDF></metadata><defs
     id="defs6" /><sodipodi:namedview
     pagecolor="#ffffff"
     bordercolor="#666666"
     borderopacity="1"
     objecttolerance="10"
     gridtolerance="10"
     guidetolerance="10"
     inkscape:pageopacity="0"
     inkscape:pageshadow="2"
     inkscape:window-width="2560"
     inkscape:window-height="1371"
     id="namedview4"
     showgrid="false"
     inkscape:zoom="0.803125"
     inkscape:cx="-669.003"
     inkscape:cy="52.2685"
     inkscape:window-x="0"
     inkscape:window-y="0"
     inkscape:window-maximized="1"
     inkscape:current-layer="g10"
     fit-margin-left="10"
     fit-margin-top="10"
     fit-margin-right="10"
     fit-margin-bottom="10" /><g
     id="g10"
     inkscape:groupmode="layer"
     inkscape:label="ink_ext_XXXXXX"
     transform="matrix(1.25,0,0,-1.25,-78.2311,827.37)"><path
       inkscape:connector-curvature="0"
       id="path98"
       style="fill:#DBDFDE;fill-opacity:1;fill-rule:nonzero;stroke:none"
       d="m 412.341,495.022 -1.348,8.539 c -2.499,-3.097 -5.37,-5.597 -8.615,-7.493 -3.244,-1.892 -6.714,-2.842 -10.406,-2.842 -5.794,0 -10.386,1.796 -13.781,5.391 -3.391,3.592 -5.09,8.733 -5.09,15.426 0,7.887 2.645,14.204 7.937,18.946 5.291,4.739 13.378,7.113 24.262,7.113 l 2.997,0 0,5.839 c 0,4.094 -0.929,7.066 -2.771,8.912 -1.846,1.846 -4.47,2.767 -7.865,2.767 -2.596,0 -5.442,-0.272 -8.536,-0.82 -3.093,-0.549 -6.438,-1.373 -10.034,-2.47 l -1.946,10.633 c 4.592,2.097 8.987,3.767 13.177,5.015 4.195,1.247 8.44,1.875 12.73,1.875 15.677,0 23.514,-8.293 23.514,-24.861 l 0,-51.97 -14.225,0 z m -175.485,0 -18.724,0 0.452,38.939 c 0,8.686 -0.498,14.651 -1.499,17.895 -1,3.244 -2.645,4.869 -4.943,4.869 -1.599,0 -3.119,-0.373 -4.567,-1.122 -1.449,-0.75 -3.023,-1.872 -4.718,-3.37 l 0,-57.211 -18.57,0 0,38.939 c 0,8.786 -0.452,14.776 -1.348,17.97 -0.9,3.194 -2.448,4.794 -4.646,4.794 -1.695,0 -3.29,-0.373 -4.789,-1.122 -1.499,-0.75 -3.148,-1.872 -4.944,-3.37 l 0,-57.211 -18.573,0 0,75.182 15.727,0 1.197,-8.389 c 2.897,3.294 5.94,5.814 9.138,7.564 3.194,1.75 6.191,2.621 8.988,2.621 3.395,0 6.388,-0.871 8.983,-2.621 2.595,-1.75 4.693,-4.567 6.292,-8.46 3.194,3.692 6.413,6.463 9.661,8.309 3.244,1.846 6.162,2.772 8.762,2.772 6.488,0 11.206,-2.596 14.149,-7.787 2.947,-5.194 4.42,-13.776 4.42,-25.761 l -0.448,-43.43 z m 48.375,0 -1.348,8.539 c -2.495,-3.097 -5.367,-5.592 -8.615,-7.493 -3.244,-1.896 -6.71,-2.842 -10.407,-2.842 -5.789,0 -10.381,1.796 -13.78,5.391 -3.391,3.592 -5.091,8.733 -5.091,15.426 0,7.887 2.646,14.199 7.937,18.946 5.291,4.739 13.379,7.113 24.263,7.113 l 2.997,0 0,5.839 c 0,4.094 -0.925,7.066 -2.771,8.912 -1.846,1.846 -4.467,2.767 -7.862,2.767 -2.595,0 -5.442,-0.272 -8.539,-0.82 -3.094,-0.549 -6.439,-1.373 -10.03,-2.47 l -1.951,10.633 c 4.596,2.097 8.988,3.767 13.182,5.015 4.19,1.247 8.435,1.875 12.73,1.875 15.673,0 23.513,-8.288 23.513,-24.861 l 0,-51.97 -14.228,0 z m -4.044,33.698 -3.295,0 c -5.291,0 -8.861,-1.076 -10.708,-3.219 -1.85,-2.148 -2.771,-5.166 -2.771,-9.063 0,-2.998 0.599,-5.216 1.796,-6.665 1.197,-1.448 2.847,-2.168 4.944,-2.168 1.997,0 3.692,0.347 5.09,1.047 1.398,0.699 3.048,1.896 4.944,3.595 l 0,16.473 z m 52.598,-34.896 -4.667,0.448 0,-33.995 -18.574,0 0,109.927 15.576,0 1.198,-8.54 c 3.097,3.399 6.241,5.969 9.435,7.715 3.198,1.746 6.091,2.621 8.69,2.621 6.987,0 12.354,-3.144 16.1,-9.436 3.742,-6.287 5.614,-15.124 5.614,-26.506 0,-13.379 -2.772,-23.765 -8.335,-31.153 -5.567,-7.384 -13.931,-11.081 -25.037,-11.081 z m 4.316,62.901 c -2.194,0 -5.191,-1.499 -8.983,-4.492 l 0,-44.783 c 1.695,-1.097 3.692,-1.645 5.99,-1.645 3.596,0 6.614,2.323 9.059,6.966 2.448,4.642 3.671,11.005 3.671,19.092 0,8.486 -0.9,14.752 -2.696,18.796 -1.796,4.044 -4.144,6.066 -7.041,6.066 z m 70.196,-28.005 -3.298,0 c -5.287,0 -8.858,-1.076 -10.708,-3.219 -1.846,-2.148 -2.767,-5.166 -2.767,-9.063 0,-2.998 0.598,-5.216 1.796,-6.665 1.197,-1.444 2.846,-2.168 4.939,-2.168 2.001,0 3.697,0.347 5.095,1.047 1.394,0.694 3.043,1.896 4.943,3.595 l 0,16.473" /><path
       inkscape:connector-curvature="0"
       id="path100"
       style="fill:#66C640;fill-opacity:1;fill-rule:evenodd;stroke:none"
       d="m 81.6278,653.892 47.9812,0 c 6.074,0 11.043,-4.969 11.043,-11.043 l 0,-6.442 -70.0671,-28.893 0,35.335 c 0,6.074 4.9689,11.043 11.0429,11.043 z m 158.8072,0 25.251,0 -20.307,-17.762 c -7.087,-6.195 -9.301,-14.165 -6.509,-20.419 0.54,-1.218 1.272,-2.37 2.189,-3.425 0.925,-1.063 2.035,-2.03 3.336,-2.88 l 0,0 39.082,-25.577 -43.042,0 c -6.074,0 -11.043,4.969 -11.043,11.043 l 0,47.981 c 0,6.074 4.969,11.043 11.043,11.043 z m 45.566,0 2.415,0 c 6.074,0 11.043,-4.969 11.043,-11.043 l 0,-47.981 c 0,-3.445 -1.599,-6.53 -4.09,-8.56 l -34.903,19.063 0,0 c -1.114,0.682 -2.076,1.457 -2.88,2.315 -0.804,0.862 -1.453,1.796 -1.943,2.788 -2.528,5.107 -0.732,11.361 4.794,16.987 l 25.568,26.431 z m -124.971,0 47.985,0 c 6.074,0 11.043,-4.969 11.043,-11.043 l 0,-47.981 c 0,-1.808 -0.44,-3.516 -1.219,-5.023 l -33.936,43.648 0,0 c -3.416,4.391 -8.996,7.368 -15.233,8.632 -6.233,1.26 -13.132,0.804 -19.185,-1.67 l 0,0 -0.494,-0.201 0,2.591 c 0,6.074 4.969,11.043 11.043,11.043 z m 55.8,-66.806 c -2.005,-2.009 -4.772,-3.261 -7.815,-3.261 l -47.985,0 c -6.074,0 -11.043,4.969 -11.043,11.043 l 0,35.544 4.424,2.252 0,0 c 4.944,2.165 10.658,2.663 15.887,1.721 5.224,-0.938 9.958,-3.311 12.939,-6.895 l 0,0 33.593,-40.404 z m -76.178,38.521 0,-30.739 c 0,-6.07 -4.969,-11.043 -11.043,-11.043 l -47.9812,0 c -4.3786,0 -8.1796,2.583 -9.9629,6.3 l 68.9871,35.482" /><path
       inkscape:connector-curvature="0"
       id="path102"
       style="fill:#66C640;fill-opacity:1;fill-rule:nonzero;stroke:none"
       d="m 194.481,480.701 0,-4.065 c -1.139,0.892 -2.207,1.34 -3.182,1.34 -0.649,0 -1.168,-0.189 -1.57,-0.565 -0.397,-0.373 -0.594,-0.871 -0.594,-1.495 0,-0.573 0.163,-1.092 0.498,-1.54 0.331,-0.456 0.95,-1.005 1.846,-1.645 1.051,-0.758 1.796,-1.327 2.235,-1.704 0.436,-0.381 0.792,-0.766 1.055,-1.155 0.666,-0.959 1.005,-2.098 1.005,-3.42 0,-1.373 -0.335,-2.613 -0.988,-3.726 -0.598,-1.051 -1.478,-1.808 -2.633,-2.273 -0.854,-0.343 -1.741,-0.511 -2.666,-0.511 -1.44,0 -2.713,0.352 -3.81,1.068 l 0,3.993 c 1.164,-0.758 2.244,-1.13 3.249,-1.13 0.787,0 1.415,0.213 1.888,0.649 0.464,0.431 0.694,0.992 0.694,1.683 0,0.594 -0.142,1.05 -0.427,1.385 -0.284,0.335 -1.013,0.888 -2.172,1.645 -1.13,0.745 -1.993,1.453 -2.583,2.123 -0.984,1.096 -1.469,2.465 -1.469,4.131 0,1.834 0.561,3.37 1.678,4.613 0.988,1.093 2.345,1.633 4.069,1.633 1.294,0 2.587,-0.339 3.877,-1.034 z m 4.424,0.699 4.362,0 0,-17.146 4.567,0 0,-3.977 -8.929,0 0,21.123 z m 18.57,0.335 c 1.603,0 3.089,-0.532 4.445,-1.595 1.152,-0.908 1.993,-2.118 2.525,-3.633 0.531,-1.512 0.799,-3.458 0.799,-5.827 0,-3.366 -0.666,-5.961 -2.001,-7.787 -0.619,-0.845 -1.411,-1.536 -2.394,-2.068 -1.085,-0.59 -2.202,-0.883 -3.358,-0.883 -1.59,0 -3.068,0.532 -4.424,1.595 -2.219,1.742 -3.328,4.843 -3.328,9.31 0,1.775 0.159,3.303 0.485,4.584 0.319,1.289 0.825,2.403 1.516,3.353 0.619,0.845 1.41,1.536 2.394,2.072 1.043,0.565 2.156,0.858 3.341,0.879 z m 0.02,-3.839 c -0.85,0 -1.558,-0.481 -2.114,-1.436 -0.649,-1.121 -0.984,-2.967 -0.984,-5.534 0,-2.775 0.385,-4.717 1.164,-5.814 0.531,-0.774 1.18,-1.164 1.934,-1.164 0.849,0 1.557,0.482 2.109,1.436 0.658,1.126 0.988,2.943 0.988,5.446 0,2.847 -0.385,4.818 -1.164,5.907 -0.535,0.766 -1.176,1.151 -1.933,1.159 z m 9.087,3.504 4.701,0 2.324,-8.154 c 0.301,-1.009 0.561,-2.081 0.774,-3.22 0.06,-0.33 0.13,-0.904 0.226,-1.728 0.02,-0.205 0.06,-0.478 0.122,-0.808 l 0.06,0.632 c 0.226,2.055 0.524,3.759 0.888,5.124 l 2.424,8.154 4.558,0 -6.12,-21.123 -3.558,0 -6.396,21.123 z m 21.433,0 4.588,0 5.266,-21.123 -4.621,0 -0.821,3.546 -4.412,0 -0.77,-3.546 -4.362,0 5.132,21.123 z m 3.768,-14.329 -0.729,3.295 c -0.41,1.938 -0.711,3.801 -0.904,5.588 -0.134,-2.076 -0.398,-4.065 -0.812,-5.974 l -0.645,-2.909 3.09,0 z m 8.824,14.329 4.358,0 0,-9.44 3.683,9.44 4.463,0 -4.094,-9.766 4.605,-11.357 -4.605,0 -4.052,10.737 0,-10.737 -4.358,0 0,21.123 z m 16.46,0 4.362,0 0,-21.123 -4.362,0 0,21.123 z m 12.541,0 4.588,0 5.266,-21.123 -4.621,0 -0.821,3.546 -4.412,0 -0.77,-3.546 -4.362,0 5.132,21.123 z m 3.768,-14.329 -0.729,3.295 c -0.41,1.938 -0.711,3.801 -0.904,5.588 -0.134,-2.076 -0.398,-4.065 -0.812,-5.974 l -0.645,-2.909 3.09,0 z m 45.666,14.329 3.667,0 c 1.423,0 2.545,-0.113 3.374,-0.339 2.239,-0.624 3.901,-2.06 4.99,-4.32 0.787,-1.616 1.18,-3.625 1.18,-6.015 0,-3.395 -0.766,-5.982 -2.298,-7.77 -1.524,-1.783 -3.751,-2.679 -6.664,-2.679 l -4.249,0 0,21.123 z m 4.362,-17.263 c 0.623,0 1.138,0.09 1.532,0.238 0.393,0.143 0.791,0.415 1.18,0.796 0.536,0.523 0.963,1.289 1.273,2.298 0.314,1 0.469,2.101 0.469,3.282 0,1.189 -0.155,2.294 -0.457,3.323 -0.309,1.026 -0.728,1.83 -1.251,2.403 -0.402,0.423 -0.796,0.724 -1.189,0.896 -0.394,0.18 -0.913,0.285 -1.557,0.331 l 0,-13.567 z m 12.085,17.263 4.358,0 0,-21.123 -4.358,0 0,21.123 z m 15.409,-9.36 7.108,0 c 0.01,-0.691 0.02,-1.243 0.02,-1.654 0,-1.887 -0.143,-3.432 -0.436,-4.625 -0.293,-1.197 -0.787,-2.273 -1.482,-3.236 -1.255,-1.725 -2.968,-2.583 -5.14,-2.583 -2.403,0 -4.316,0.996 -5.735,2.985 -1.423,1.988 -2.135,4.605 -2.135,7.84 0,3.324 0.67,5.974 2.001,7.954 1.365,2.009 3.307,3.014 5.852,3.014 1.582,0 2.935,-0.431 4.052,-1.298 1.118,-0.866 1.934,-2.105 2.441,-3.721 l -4.249,-1.578 c -0.151,0.841 -0.318,1.456 -0.502,1.833 -0.352,0.712 -0.93,1.068 -1.725,1.068 -1.109,0 -1.922,-0.695 -2.424,-2.085 -0.502,-1.394 -0.758,-3.102 -0.758,-5.124 0,-4.743 1.08,-7.112 3.249,-7.112 1.674,0 2.558,1.524 2.645,4.58 l -2.779,0 0,3.742 z m 10.356,9.36 4.358,0 0,-21.123 -4.358,0 0,21.123 z m 6.991,0 11.227,0 0,-3.868 -3.441,0 0,-17.255 -4.362,0 0,17.255 -3.424,0 0,3.868 z m 16.803,0 4.588,0 5.266,-21.123 -4.621,0 -0.821,3.546 -4.412,0 -0.77,-3.546 -4.362,0 5.132,21.123 z m 3.767,-14.329 -0.728,3.295 c -0.406,1.938 -0.712,3.801 -0.904,5.588 -0.134,-2.076 -0.398,-4.065 -0.812,-5.974 l -0.645,-2.909 3.089,0 z m 8.82,14.329 4.367,0 0,-17.146 4.567,0 0,-3.977 -8.934,0 0,21.123" /></g></svg>
